<svg width="371" height="88" viewBox="0 0 371 88" fill="none" xmlns="http://www.w3.org/2000/svg">
<path d="M44.2941 64.0588C44.2941 61.0392 43.2156 58.6862 41.0588 57C38.9411 55.3137 35.196 53.5686 29.8235 51.7647C24.451 49.9607 20.0588 48.2156 16.647 46.5294C5.54901 41.0784 -2.49926e-06 33.5882 0 24.0588C1.24449e-06 19.3137 1.37255 15.1372 4.11765 11.5294C6.90196 7.88234 10.8235 5.05881 15.8823 3.05882C20.9412 1.0196 26.6274 -1.65589e-06 32.9412 0C39.098 1.61475e-06 44.6078 1.09804 49.4706 3.29412C51.8596 4.3644 53.9878 5.65822 55.8552 7.1756C57.1081 6.30207 58.4569 5.5181 59.9017 4.8237C64.9605 2.39233 70.9409 1.17665 77.8429 1.17665C88.2742 1.17665 96.4899 3.88253 102.49 9.2943C108.49 14.7061 111.549 22.1178 111.666 31.5296L111.666 88.0001L90.9016 88.0001L90.9017 31.1178C90.6664 21.7453 86.3134 17.059 77.8429 17.059C73.5683 17.059 70.3331 18.2355 68.137 20.5884C65.9409 22.9413 64.8429 26.7649 64.8429 32.059L64.8429 46.1973C61.4265 42.0781 56.7454 38.6323 51.0671 35.8424C49.0413 34.8414 46.7467 33.843 44.1958 32.8445V31.9413C44.1958 30.085 44.3113 28.3006 44.5424 26.5882H44.3529C44.3529 23.098 43.2745 20.3921 41.1176 18.4706C39 16.549 36.1176 15.5882 32.4706 15.5882C28.7843 15.5882 25.8627 16.4117 23.7059 18.0588C21.5882 19.6666 20.5294 21.7255 20.5294 24.2353C20.5294 26.4313 21.7059 28.4313 24.0588 30.2353C26.4117 32 30.549 33.8431 36.4706 35.7647C42.3921 37.647 47.2549 39.6862 51.0588 41.8823C60.3137 47.2157 64.9411 54.5686 64.9411 63.9411C64.9411 71.4313 62.1176 77.3137 56.4705 81.5882C50.8235 85.8627 43.0784 87.9999 33.2352 87.9999L33.2353 72.4705C36.647 72.4705 39.3333 71.745 41.2941 70.2941C43.2941 68.8039 44.2941 66.7254 44.2941 64.0588Z" fill="url(#paint0_linear)"/>
<path d="M175.788 83H162.604V55.5781H136.896V83H123.713V19.0156H136.896V44.9434H162.604V19.0156H175.788V83ZM211.032 59.5771H200.529V83H187.346V19.0156H211.12C218.679 19.0156 224.509 20.7002 228.61 24.0693C232.712 27.4385 234.763 32.1992 234.763 38.3516C234.763 42.7168 233.811 46.3643 231.906 49.2939C230.031 52.1943 227.175 54.5088 223.337 56.2373L237.18 82.3848V83H223.029L211.032 59.5771ZM200.529 48.8984H211.164C214.475 48.8984 217.038 48.0635 218.854 46.3936C220.671 44.6943 221.579 42.3652 221.579 39.4062C221.579 36.3887 220.715 34.0156 218.986 32.2871C217.287 30.5586 214.665 29.6943 211.12 29.6943H200.529V48.8984ZM262.053 19.0156L278.488 65.4219L294.836 19.0156H312.15V83H298.923V65.5098L300.241 35.3193L282.971 83H273.918L256.691 35.3633L258.01 65.5098V83H244.826V19.0156H262.053ZM356.843 66.2129C356.843 63.7227 355.964 61.8184 354.206 60.5C352.448 59.1523 349.284 57.7461 344.714 56.2812C340.144 54.7871 336.525 53.3223 333.859 51.8867C326.594 47.9609 322.961 42.6729 322.961 36.0225C322.961 32.5654 323.928 29.4893 325.861 26.7939C327.824 24.0693 330.622 21.9453 334.255 20.4219C337.917 18.8984 342.019 18.1367 346.56 18.1367C351.13 18.1367 355.202 18.9717 358.776 20.6416C362.351 22.2822 365.119 24.6113 367.082 27.6289C369.074 30.6465 370.07 34.0742 370.07 37.9121H356.887C356.887 34.9824 355.964 32.7119 354.118 31.1006C352.272 29.46 349.68 28.6396 346.34 28.6396C343.117 28.6396 340.612 29.3281 338.825 30.7051C337.038 32.0527 336.145 33.8398 336.145 36.0664C336.145 38.1465 337.185 39.8896 339.265 41.2959C341.374 42.7021 344.465 44.0205 348.537 45.251C356.037 47.5068 361.501 50.3047 364.929 53.6445C368.356 56.9844 370.07 61.1445 370.07 66.125C370.07 71.6621 367.976 76.0127 363.786 79.1768C359.597 82.3115 353.957 83.8789 346.867 83.8789C341.945 83.8789 337.463 82.9854 333.42 81.1982C329.377 79.3818 326.286 76.9062 324.147 73.7715C322.038 70.6367 320.983 67.0039 320.983 62.873H334.211C334.211 69.9336 338.43 73.4639 346.867 73.4639C350.002 73.4639 352.448 72.834 354.206 71.5742C355.964 70.2852 356.843 68.498 356.843 66.2129Z" fill="#7F42EF"/>
<defs>
<linearGradient id="paint0_linear" x1="0" y1="44.0004" x2="111.666" y2="44.0004" gradientUnits="userSpaceOnUse">
<stop stop-color="#1076FD"/>
<stop offset="1" stop-color="#FF05DD"/>
</linearGradient>
</defs>
</svg>
